<svg xmlns="http://www.w3.org/2000/svg" viewBox="0 0 512 512" role="img" aria-label="EcoPlastic">
  <rect width="512" height="512" rx="96" fill="#071114"/>
  <circle cx="256" cy="256" r="178" fill="#0f2026" stroke="#36d17f" stroke-width="18"/>
  <path d="M211 152h95l-22-28 29-23 63 80-63 80-29-23 22-28h-95c-41 0-74 33-74 74 0 16 5 31 14 43l-47 20a124 124 0 0 1-15-63c0-73 59-132 132-132Z" fill="#36d17f"/>
  <path d="M301 360h-95l22 28-29 23-63-80 63-80 29 23-22 28h95c41 0 74-33 74-74 0-16-5-31-14-43l47-20c10 19 15 40 15 63 0 73-59 132-132 132Z" fill="#36c7d0"/>
</svg>
